<svg width="27" height="24" viewBox="0 0 27 24" fill="none" xmlns="http://www.w3.org/2000/svg">
<path d="M0 1.71429C0 1.25963 0.17779 0.823594 0.494258 0.502103C0.810725 0.180612 1.23995 0 1.6875 0H25.3125C25.7601 0 26.1893 0.180612 26.5057 0.502103C26.8222 0.823594 27 1.25963 27 1.71429C27 2.16894 26.8222 2.60498 26.5057 2.92647C26.1893 3.24796 25.7601 3.42857 25.3125 3.42857H1.6875C1.23995 3.42857 0.810725 3.24796 0.494258 2.92647C0.17779 2.60498 0 2.16894 0 1.71429ZM0 22.2857C0 21.8311 0.17779 21.395 0.494258 21.0735C0.810725 20.752 1.23995 20.5714 1.6875 20.5714H25.3125C25.7601 20.5714 26.1893 20.752 26.5057 21.0735C26.8222 21.395 27 21.8311 27 22.2857C27 22.7404 26.8222 23.1764 26.5057 23.4979C26.1893 23.8194 25.7601 24 25.3125 24H1.6875C1.23995 24 0.810725 23.8194 0.494258 23.4979C0.17779 23.1764 0 22.7404 0 22.2857ZM11.8125 10.2857C11.3649 10.2857 10.9357 10.4663 10.6193 10.7878C10.3028 11.1093 10.125 11.5453 10.125 12C10.125 12.4547 10.3028 12.8907 10.6193 13.2122C10.9357 13.5337 11.3649 13.7143 11.8125 13.7143H25.3125C25.7601 13.7143 26.1893 13.5337 26.5057 13.2122C26.8222 12.8907 27 12.4547 27 12C27 11.5453 26.8222 11.1093 26.5057 10.7878C26.1893 10.4663 25.7601 10.2857 25.3125 10.2857H11.8125Z" fill="white"/>
</svg>
